<svg xmlns="http://www.w3.org/2000/svg" xmlns:xlink="http://www.w3.org/1999/xlink" width="86" height="86" viewBox="0 0 86 86">
  <defs>
    <clipPath id="clip-path">
      <rect id="Rectangle_2" data-name="Rectangle 2" width="86" height="86" fill="none"/>
    </clipPath>
  </defs>
  <g id="square_small" clip-path="url(#clip-path)">
    <g id="Group_38" data-name="Group 38" transform="translate(-655 -227)">
      <circle id="Ellipse_4" data-name="Ellipse 4" cx="3" cy="3" r="3" transform="translate(655 227)" fill="#f2f5fa"/>
    </g>
    <g id="Group_39" data-name="Group 39" transform="translate(-642 -227)">
      <circle id="Ellipse_4-2" data-name="Ellipse 4" cx="3" cy="3" r="3" transform="translate(655 227)" fill="#f2f5fa"/>
    </g>
    <g id="Group_40" data-name="Group 40" transform="translate(-629 -227)">
      <circle id="Ellipse_4-3" data-name="Ellipse 4" cx="3" cy="3" r="3" transform="translate(655 227)" fill="#f2f5fa"/>
    </g>
    <g id="Group_41" data-name="Group 41" transform="translate(-616 -227)">
      <circle id="Ellipse_4-4" data-name="Ellipse 4" cx="3" cy="3" r="3" transform="translate(655 227)" fill="#f2f5fa"/>
    </g>
    <g id="Group_42" data-name="Group 42" transform="translate(-603 -227)">
      <circle id="Ellipse_4-5" data-name="Ellipse 4" cx="3" cy="3" r="3" transform="translate(655 227)" fill="#f2f5fa"/>
    </g>
    <g id="Group_43" data-name="Group 43" transform="translate(-590 -227)">
      <circle id="Ellipse_4-6" data-name="Ellipse 4" cx="3" cy="3" r="3" transform="translate(655 227)" fill="#f2f5fa"/>
    </g>
    <g id="Group_44" data-name="Group 44" transform="translate(-577 -227)">
      <circle id="Ellipse_4-7" data-name="Ellipse 4" cx="3" cy="3" r="3" transform="translate(655 227)" fill="#f2f5fa"/>
    </g>
    <g id="Group_45" data-name="Group 45" transform="translate(-655 -214)">
      <circle id="Ellipse_4-8" data-name="Ellipse 4" cx="3" cy="3" r="3" transform="translate(655 227)" fill="#f2f5fa"/>
    </g>
    <g id="Group_46" data-name="Group 46" transform="translate(-642 -214)">
      <circle id="Ellipse_4-9" data-name="Ellipse 4" cx="3" cy="3" r="3" transform="translate(655 227)" fill="#f2f5fa"/>
    </g>
    <g id="Group_47" data-name="Group 47" transform="translate(-629 -214)">
      <circle id="Ellipse_4-10" data-name="Ellipse 4" cx="3" cy="3" r="3" transform="translate(655 227)" fill="#f2f5fa"/>
    </g>
    <g id="Group_48" data-name="Group 48" transform="translate(-616 -214)">
      <circle id="Ellipse_4-11" data-name="Ellipse 4" cx="3" cy="3" r="3" transform="translate(655 227)" fill="#f2f5fa"/>
    </g>
    <g id="Group_49" data-name="Group 49" transform="translate(-603 -214)">
      <circle id="Ellipse_4-12" data-name="Ellipse 4" cx="3" cy="3" r="3" transform="translate(655 227)" fill="#f2f5fa"/>
    </g>
    <g id="Group_50" data-name="Group 50" transform="translate(-590 -214)">
      <circle id="Ellipse_4-13" data-name="Ellipse 4" cx="3" cy="3" r="3" transform="translate(655 227)" fill="#f2f5fa"/>
    </g>
    <g id="Group_51" data-name="Group 51" transform="translate(-577 -214)">
      <circle id="Ellipse_4-14" data-name="Ellipse 4" cx="3" cy="3" r="3" transform="translate(655 227)" fill="#f2f5fa"/>
    </g>
    <g id="Group_52" data-name="Group 52" transform="translate(-655 -201)">
      <circle id="Ellipse_4-15" data-name="Ellipse 4" cx="3" cy="3" r="3" transform="translate(655 227)" fill="#f2f5fa"/>
    </g>
    <g id="Group_53" data-name="Group 53" transform="translate(-642 -201)">
      <circle id="Ellipse_4-16" data-name="Ellipse 4" cx="3" cy="3" r="3" transform="translate(655 227)" fill="#f2f5fa"/>
    </g>
    <g id="Group_54" data-name="Group 54" transform="translate(-629 -201)">
      <circle id="Ellipse_4-17" data-name="Ellipse 4" cx="3" cy="3" r="3" transform="translate(655 227)" fill="#f2f5fa"/>
    </g>
    <g id="Group_55" data-name="Group 55" transform="translate(-616 -201)">
      <circle id="Ellipse_4-18" data-name="Ellipse 4" cx="3" cy="3" r="3" transform="translate(655 227)" fill="#f2f5fa"/>
    </g>
    <g id="Group_56" data-name="Group 56" transform="translate(-603 -201)">
      <circle id="Ellipse_4-19" data-name="Ellipse 4" cx="3" cy="3" r="3" transform="translate(655 227)" fill="#f2f5fa"/>
    </g>
    <g id="Group_57" data-name="Group 57" transform="translate(-590 -201)">
      <circle id="Ellipse_4-20" data-name="Ellipse 4" cx="3" cy="3" r="3" transform="translate(655 227)" fill="#f2f5fa"/>
    </g>
    <g id="Group_58" data-name="Group 58" transform="translate(-577 -201)">
      <circle id="Ellipse_4-21" data-name="Ellipse 4" cx="3" cy="3" r="3" transform="translate(655 227)" fill="#f2f5fa"/>
    </g>
    <g id="Group_59" data-name="Group 59" transform="translate(-655 -188)">
      <circle id="Ellipse_4-22" data-name="Ellipse 4" cx="3" cy="3" r="3" transform="translate(655 227)" fill="#f2f5fa"/>
    </g>
    <g id="Group_60" data-name="Group 60" transform="translate(-642 -188)">
      <circle id="Ellipse_4-23" data-name="Ellipse 4" cx="3" cy="3" r="3" transform="translate(655 227)" fill="#f2f5fa"/>
    </g>
    <g id="Group_61" data-name="Group 61" transform="translate(-629 -188)">
      <circle id="Ellipse_4-24" data-name="Ellipse 4" cx="3" cy="3" r="3" transform="translate(655 227)" fill="#f2f5fa"/>
    </g>
    <g id="Group_62" data-name="Group 62" transform="translate(-616 -188)">
      <circle id="Ellipse_4-25" data-name="Ellipse 4" cx="3" cy="3" r="3" transform="translate(655 227)" fill="#f2f5fa"/>
    </g>
    <g id="Group_63" data-name="Group 63" transform="translate(-603 -188)">
      <circle id="Ellipse_4-26" data-name="Ellipse 4" cx="3" cy="3" r="3" transform="translate(655 227)" fill="#f2f5fa"/>
    </g>
    <g id="Group_64" data-name="Group 64" transform="translate(-590 -188)">
      <circle id="Ellipse_4-27" data-name="Ellipse 4" cx="3" cy="3" r="3" transform="translate(655 227)" fill="#f2f5fa"/>
    </g>
    <g id="Group_65" data-name="Group 65" transform="translate(-577 -188)">
      <circle id="Ellipse_4-28" data-name="Ellipse 4" cx="3" cy="3" r="3" transform="translate(655 227)" fill="#f2f5fa"/>
    </g>
    <g id="Group_66" data-name="Group 66" transform="translate(-655 -175)">
      <circle id="Ellipse_4-29" data-name="Ellipse 4" cx="3" cy="3" r="3" transform="translate(655 227)" fill="#f2f5fa"/>
    </g>
    <g id="Group_67" data-name="Group 67" transform="translate(-642 -175)">
      <circle id="Ellipse_4-30" data-name="Ellipse 4" cx="3" cy="3" r="3" transform="translate(655 227)" fill="#f2f5fa"/>
    </g>
    <g id="Group_68" data-name="Group 68" transform="translate(-629 -175)">
      <circle id="Ellipse_4-31" data-name="Ellipse 4" cx="3" cy="3" r="3" transform="translate(655 227)" fill="#f2f5fa"/>
    </g>
    <g id="Group_69" data-name="Group 69" transform="translate(-616 -175)">
      <circle id="Ellipse_4-32" data-name="Ellipse 4" cx="3" cy="3" r="3" transform="translate(655 227)" fill="#f2f5fa"/>
    </g>
    <g id="Group_70" data-name="Group 70" transform="translate(-603 -175)">
      <circle id="Ellipse_4-33" data-name="Ellipse 4" cx="3" cy="3" r="3" transform="translate(655 227)" fill="#f2f5fa"/>
    </g>
    <g id="Group_71" data-name="Group 71" transform="translate(-590 -175)">
      <circle id="Ellipse_4-34" data-name="Ellipse 4" cx="3" cy="3" r="3" transform="translate(655 227)" fill="#f2f5fa"/>
    </g>
    <g id="Group_72" data-name="Group 72" transform="translate(-577 -175)">
      <circle id="Ellipse_4-35" data-name="Ellipse 4" cx="3" cy="3" r="3" transform="translate(655 227)" fill="#f2f5fa"/>
    </g>
    <g id="Group_73" data-name="Group 73" transform="translate(-655 -162)">
      <circle id="Ellipse_4-36" data-name="Ellipse 4" cx="3" cy="3" r="3" transform="translate(655 227)" fill="#f2f5fa"/>
    </g>
    <g id="Group_74" data-name="Group 74" transform="translate(-642 -162)">
      <circle id="Ellipse_4-37" data-name="Ellipse 4" cx="3" cy="3" r="3" transform="translate(655 227)" fill="#f2f5fa"/>
    </g>
    <g id="Group_75" data-name="Group 75" transform="translate(-629 -162)">
      <circle id="Ellipse_4-38" data-name="Ellipse 4" cx="3" cy="3" r="3" transform="translate(655 227)" fill="#f2f5fa"/>
    </g>
    <g id="Group_76" data-name="Group 76" transform="translate(-616 -162)">
      <circle id="Ellipse_4-39" data-name="Ellipse 4" cx="3" cy="3" r="3" transform="translate(655 227)" fill="#f2f5fa"/>
    </g>
    <g id="Group_77" data-name="Group 77" transform="translate(-603 -162)">
      <circle id="Ellipse_4-40" data-name="Ellipse 4" cx="3" cy="3" r="3" transform="translate(655 227)" fill="#f2f5fa"/>
    </g>
    <g id="Group_78" data-name="Group 78" transform="translate(-590 -162)">
      <circle id="Ellipse_4-41" data-name="Ellipse 4" cx="3" cy="3" r="3" transform="translate(655 227)" fill="#f2f5fa"/>
    </g>
    <g id="Group_79" data-name="Group 79" transform="translate(-577 -162)">
      <circle id="Ellipse_4-42" data-name="Ellipse 4" cx="3" cy="3" r="3" transform="translate(655 227)" fill="#f2f5fa"/>
    </g>
    <g id="Group_80" data-name="Group 80" transform="translate(-655 -149)">
      <circle id="Ellipse_4-43" data-name="Ellipse 4" cx="3" cy="3" r="3" transform="translate(655 227)" fill="#f2f5fa"/>
    </g>
    <g id="Group_81" data-name="Group 81" transform="translate(-642 -149)">
      <circle id="Ellipse_4-44" data-name="Ellipse 4" cx="3" cy="3" r="3" transform="translate(655 227)" fill="#f2f5fa"/>
    </g>
    <g id="Group_82" data-name="Group 82" transform="translate(-629 -149)">
      <circle id="Ellipse_4-45" data-name="Ellipse 4" cx="3" cy="3" r="3" transform="translate(655 227)" fill="#f2f5fa"/>
    </g>
    <g id="Group_83" data-name="Group 83" transform="translate(-616 -149)">
      <circle id="Ellipse_4-46" data-name="Ellipse 4" cx="3" cy="3" r="3" transform="translate(655 227)" fill="#f2f5fa"/>
    </g>
    <g id="Group_84" data-name="Group 84" transform="translate(-603 -149)">
      <circle id="Ellipse_4-47" data-name="Ellipse 4" cx="3" cy="3" r="3" transform="translate(655 227)" fill="#f2f5fa"/>
    </g>
    <g id="Group_85" data-name="Group 85" transform="translate(-590 -149)">
      <circle id="Ellipse_4-48" data-name="Ellipse 4" cx="3" cy="3" r="3" transform="translate(655 227)" fill="#f2f5fa"/>
    </g>
    <g id="Group_86" data-name="Group 86" transform="translate(-577 -149)">
      <circle id="Ellipse_4-49" data-name="Ellipse 4" cx="3" cy="3" r="3" transform="translate(655 227)" fill="#f2f5fa"/>
    </g>
  </g>
</svg>
